<mxfile host="app.diagrams.net" modified="2021-09-28T09:35:17.703Z" agent="5.0 (Windows NT 10.0; Win64; x64) AppleWebKit/537.36 (KHTML, like Gecko) Chrome/94.0.4606.54 Safari/537.36" etag="bTmhQEsGoWXnCZ-4bDKk" version="15.3.1" type="github">
  <diagram id="OGn_5Wq7p_9z8mIeB7_J" name="Page-1">
    <mxGraphModel dx="1422" dy="772" grid="1" gridSize="10" guides="1" tooltips="1" connect="1" arrows="1" fold="1" page="1" pageScale="1" pageWidth="827" pageHeight="1169" math="0" shadow="0">
      <root>
        <mxCell id="0" />
        <mxCell id="1" parent="0" />
        <mxCell id="org5B2Pm-bHhfEpEThBF-1" value="main线程&lt;br&gt;Java虚拟机栈&lt;br&gt;&lt;br&gt;&lt;br&gt;&lt;br&gt;&lt;br&gt;&lt;br&gt;&lt;br&gt;&lt;br&gt;&lt;br&gt;&lt;br&gt;&lt;br&gt;&lt;br&gt;&lt;br&gt;&lt;br&gt;&lt;br&gt;&lt;br&gt;" style="whiteSpace=wrap;html=1;aspect=fixed;fillColor=#d5e8d4;strokeColor=#82b366;" parent="1" vertex="1">
          <mxGeometry x="55" y="180" width="240" height="240" as="geometry" />
        </mxCell>
        <mxCell id="org5B2Pm-bHhfEpEThBF-2" value="loadReplicasFromDisk()&lt;br&gt;栈帧&lt;br&gt;局部变量：replicaManager" style="rounded=0;whiteSpace=wrap;html=1;fillColor=#bac8d3;strokeColor=#23445d;" parent="1" vertex="1">
          <mxGeometry x="97.5" y="230" width="155" height="60" as="geometry" />
        </mxCell>
        <mxCell id="org5B2Pm-bHhfEpEThBF-3" value="main()&lt;br&gt;栈帧&lt;br&gt;局部变量" style="rounded=0;whiteSpace=wrap;html=1;fillColor=#bac8d3;strokeColor=#23445d;" parent="1" vertex="1">
          <mxGeometry x="115" y="330" width="120" height="60" as="geometry" />
        </mxCell>
        <mxCell id="org5B2Pm-bHhfEpEThBF-4" value="新生代内存&lt;br&gt;&lt;br&gt;&lt;br&gt;&lt;br&gt;&lt;br&gt;&lt;br&gt;&lt;br&gt;&lt;br&gt;&lt;br&gt;&lt;br&gt;&lt;br&gt;&lt;br&gt;&lt;br&gt;&lt;br&gt;&lt;br&gt;" style="rounded=0;whiteSpace=wrap;html=1;fillColor=#fad9d5;strokeColor=#ae4132;" parent="1" vertex="1">
          <mxGeometry x="400" y="200" width="246" height="240" as="geometry" />
        </mxCell>
        <mxCell id="org5B2Pm-bHhfEpEThBF-5" value="Eden&lt;br&gt;&lt;br&gt;&lt;br&gt;&lt;br&gt;&lt;br&gt;" style="rounded=0;whiteSpace=wrap;html=1;fillColor=#b1ddf0;strokeColor=#10739e;" parent="1" vertex="1">
          <mxGeometry x="416" y="250" width="190" height="90" as="geometry" />
        </mxCell>
        <mxCell id="org5B2Pm-bHhfEpEThBF-6" value="Survivor0" style="rounded=0;whiteSpace=wrap;html=1;fillColor=#b1ddf0;strokeColor=#10739e;" parent="1" vertex="1">
          <mxGeometry x="416" y="350" width="80" height="50" as="geometry" />
        </mxCell>
        <mxCell id="org5B2Pm-bHhfEpEThBF-7" value="Survivor1" style="rounded=0;whiteSpace=wrap;html=1;fillColor=#b1ddf0;strokeColor=#10739e;" parent="1" vertex="1">
          <mxGeometry x="506" y="350" width="80" height="50" as="geometry" />
        </mxCell>
        <mxCell id="org5B2Pm-bHhfEpEThBF-8" value="ReplicaManager实例对象" style="rounded=0;whiteSpace=wrap;html=1;fillColor=#fad7ac;strokeColor=#b46504;" parent="1" vertex="1">
          <mxGeometry x="426" y="275" width="100" height="40" as="geometry" />
        </mxCell>
        <mxCell id="org5B2Pm-bHhfEpEThBF-9" value="存活对象" style="rounded=0;whiteSpace=wrap;html=1;fillColor=#fad7ac;strokeColor=#b46504;" parent="1" vertex="1">
          <mxGeometry x="536" y="270" width="50" height="25" as="geometry" />
        </mxCell>
        <mxCell id="org5B2Pm-bHhfEpEThBF-10" value="存活对象" style="rounded=0;whiteSpace=wrap;html=1;fillColor=#fad7ac;strokeColor=#b46504;" parent="1" vertex="1">
          <mxGeometry x="536" y="310" width="50" height="25" as="geometry" />
        </mxCell>
        <mxCell id="org5B2Pm-bHhfEpEThBF-11" style="edgeStyle=orthogonalEdgeStyle;rounded=0;orthogonalLoop=1;jettySize=auto;html=1;exitX=1;exitY=0.5;exitDx=0;exitDy=0;" parent="1" source="org5B2Pm-bHhfEpEThBF-2" target="org5B2Pm-bHhfEpEThBF-8" edge="1">
          <mxGeometry relative="1" as="geometry" />
        </mxCell>
      </root>
    </mxGraphModel>
  </diagram>
</mxfile>
